<svg xmlns="http://www.w3.org/2000/svg" width="72" height="72" viewBox="0 0 72 72"><path fill="#fff" d="M36 72C16.15 72 0 55.85 0 36S16.15 0 36 0s36 16.15 36 36-16.148 36-36 36zm0-69.12C17.738 2.88 2.88 17.737 2.88 36S17.738 69.12 36 69.12c18.263 0 33.12-14.857 33.12-33.12S54.265 2.88 36 2.88z"/><path fill="#fff" d="M46.533 25H25.468c-2.352 0-4.258 1.943-4.258 4.34V42.66c0 2.396 1.906 4.342 4.258 4.342h21.065c2.352 0 4.258-1.944 4.258-4.342V29.34c0-2.397-1.905-4.34-4.257-4.34zm1.667 4.317l-8.615 8.012 7.384 6.105c.225.188.26.522.07.75-.105.127-.256.193-.41.193-.12 0-.24-.04-.337-.123l-7.49-6.193-2.375 2.21c-.013.012-.027.017-.04.028l-.042.032c-.02.015-.042.026-.063.035-.016.007-.03.016-.043.022-.027.01-.052.017-.078.022-.013.003-.026.01-.038.013-.038.008-.08.012-.118.012-.04 0-.08-.004-.118-.012-.015-.003-.027-.01-.04-.013-.026-.006-.05-.012-.075-.023-.015-.008-.03-.017-.045-.023l-.063-.035-.043-.032c-.014-.012-.027-.017-.037-.028l-2.378-2.213-7.5 6.195c-.1.084-.22.123-.34.123-.153 0-.304-.066-.407-.194-.188-.227-.156-.562.07-.75l7.386-6.105-8.612-8.013c-.25-.233-.267-.627-.03-.878.234-.253.624-.265.877-.032L36 38.97l11.354-10.562c.25-.232.644-.22.878.03.23.254.22.646-.032.88z"/></svg>