<svg xmlns="http://www.w3.org/2000/svg" width="72" height="72" viewBox="0 0 72 72"><path fill="#fff" d="M36 72C16.15 72 0 55.852 0 36 0 16.15 16.15 0 36 0s36 16.15 36 36c0 19.852-16.15 36-36 36zm0-69.12C17.737 2.88 2.88 17.737 2.88 36c0 18.264 14.857 33.12 33.12 33.12 18.263 0 33.12-14.856 33.12-33.12C69.12 17.737 54.263 2.88 36 2.88zM35.454 24.23c.214.134.456.33.724.584.257.266.51.594.755.982.236.367.445.8.63 1.3.147.5.224 1.082.224 1.748-.02 1.222-.29 2.2-.81 2.932-.254.355-.524.683-.81.983-.314.3-.65.604-1.006.915-.203.21-.39.45-.563.716-.204.28-.305.6-.305.967 0 .356.104.65.313.883.177.222.35.417.517.583l1.16.95c.72.59 1.35 1.237 1.893 1.948.512.724.777 1.667.8 2.833 0 1.654-.73 3.12-2.192 4.396-1.516 1.32-3.703 2.004-6.56 2.048-2.392-.02-4.178-.532-5.357-1.53-1.19-.93-1.786-2.044-1.786-3.34 0-.633.194-1.337.58-2.112.377-.775 1.057-1.457 2.042-2.045 1.106-.63 2.268-1.053 3.485-1.263 1.206-.178 2.207-.277 3.003-.3-.246-.323-.466-.67-.658-1.038-.225-.358-.337-.788-.337-1.29 0-.302.042-.553.128-.754l.208-.586c-.387.045-.753.067-1.096.067-1.818-.022-3.204-.594-4.157-1.715-.998-1.044-1.496-2.26-1.496-3.647 0-1.677.708-3.198 2.12-4.563.972-.8 1.98-1.32 3.027-1.565 1.035-.21 2.006-.317 2.913-.317h6.83l-2.11 1.23h-2.106zm1.318 19.66c0-.866-.283-1.622-.848-2.267-.598-.61-1.533-1.36-2.805-2.25-.22-.02-.474-.032-.768-.032-.174-.02-.62 0-1.337.067-.707.1-1.43.26-2.17.483-.173.065-.418.166-.733.3-.315.145-.636.35-.962.616-.315.276-.582.62-.8 1.032-.25.433-.374.955-.374 1.565 0 1.2.543 2.19 1.63 2.966 1.034.775 2.447 1.177 4.24 1.2 1.61-.023 2.84-.38 3.687-1.067.827-.676 1.24-1.548 1.24-2.614zm-4.76-10.01c.9-.034 1.648-.357 2.247-.97.288-.433.474-.878.557-1.334.05-.456.074-.84.074-1.152 0-1.346-.343-2.704-1.032-4.073-.323-.655-.748-1.19-1.275-1.6-.54-.39-1.157-.596-1.856-.62-.926.023-1.695.396-2.31 1.12-.516.756-.764 1.602-.742 2.536 0 1.235.36 2.52 1.084 3.856.35.623.8 1.15 1.354 1.585s1.186.652 1.898.652z"/><path fill="#fff" d="M48.92 26.73h-3.583v-3.584h-1.734v3.583H40.02v1.735h3.583v3.584h1.734v-3.585h3.584z"/></svg>