<svg xmlns="http://www.w3.org/2000/svg" width="72" height="72" viewBox="0 0 72 72"><path fill="#fff" d="M35.988 72c-19.85 0-36-16.15-36-36s16.15-36 36-36 36 16.15 36 36-16.15 36-36 36zm0-69.12C17.726 2.88 2.868 17.737 2.868 36s14.857 33.12 33.12 33.12S69.108 54.263 69.108 36 54.25 2.88 35.988 2.88zM51.37 26.46c-1.133.5-2.35.84-3.625.993 1.303-.78 2.304-2.02 2.774-3.492-1.22.725-2.57 1.25-4.01 1.533-1.15-1.228-2.79-1.993-4.605-1.993-3.485 0-6.312 2.825-6.312 6.31 0 .496.056.978.164 1.44-5.246-.264-9.896-2.776-13.01-6.595-.542.932-.853 2.016-.853 3.173 0 2.19 1.114 4.12 2.808 5.253-1.034-.032-2.007-.315-2.858-.788v.08c0 3.057 2.175 5.607 5.063 6.187-.53.143-1.087.22-1.663.22-.407 0-.802-.04-1.188-.113.803 2.508 3.134 4.333 5.896 4.384-2.16 1.693-4.88 2.702-7.838 2.702-.51 0-1.012-.03-1.506-.088 2.793 1.79 6.11 2.836 9.675 2.836 11.61 0 17.957-9.617 17.957-17.957 0-.273-.006-.546-.018-.816 1.23-.89 2.3-2.002 3.147-3.268z"/></svg>