<svg xmlns="http://www.w3.org/2000/svg" width="72" height="72" viewBox="0 0 72 72"><path fill="#fff" d="M35.987 72.02c-19.85 0-36-16.148-36-36 0-19.85 16.15-36 36-36s36 16.15 36 36-16.15 36-36 36zm0-69.12c-18.263 0-33.12 14.856-33.12 33.12 0 18.263 14.856 33.12 33.12 33.12 18.26 0 33.12-14.857 33.12-33.12 0-18.264-14.86-33.12-33.12-33.12z"/><g fill="#fff"><path d="M53.023 38.363v12.312c-.1.335-.164.687-.3 1.007-.758 1.766-2.155 2.742-3.98 3.18-.235.057-.476.094-.71.14H23.874c-.094-.022-.187-.054-.28-.07-1.797-.314-3.24-1.17-4.128-2.803-.242-.447-.348-.968-.518-1.453V38.364c.02-.037.05-.074.056-.114.202-1.23.833-2.204 1.806-2.963 1.174-.916 2.52-1.294 3.998-1.292 7.363.007 14.725.003 22.088.005.365 0 .734-.005 1.096.04 1.96.237 3.553 1.082 4.52 2.865.24.447.343.97.51 1.458zm-14.69-.58h-2.32v13.433h1.9l.167-.798c.41.25.79.52 1.2.72 1.163.566 2.16.19 2.577-1.034.192-.564.276-1.19.293-1.79.04-1.462.017-2.927.012-4.392-.002-.388 0-.777-.047-1.162-.194-1.585-1.502-2.287-2.937-1.582-.272.135-.532.295-.847.47.004-1.316.004-2.584.004-3.866zm-7.594 3.513h-2.33v.408c.02 1.884.033 3.77.058 5.65.012.92.024 1.84.07 2.757.043.814.522 1.26 1.35 1.284.286.008.58-.028.856-.092.748-.17 1.39-.537 1.924-1.185v1.187h1.9V41.298h-2.32v.415c.003 2.272.012 4.545.006 6.817 0 .232-.064.48-.15.697-.123.307-.548.547-.798.5-.256-.047-.505-.418-.52-.776-.003-.043 0-.088 0-.13l-.026-7.185c0-.106-.013-.213-.02-.34zm18.856 5.23c-.045-1.26-.07-2.48-.14-3.692-.03-.574-.2-1.12-.702-1.484-1.05-.76-2.204-.848-3.38-.395-1.134.438-1.67 1.382-1.726 2.545-.074 1.604-.09 3.214-.056 4.82.022 1.076.438 1.99 1.408 2.604 1.065.676 2.405.667 3.47-.08 1.02-.72 1.37-1.707 1.06-3.013h-1.69c-.022.033-.03.043-.03.052-.007.333-.007.666-.017.998-.016.548-.27.847-.813.91-.24.028-.49.026-.73-.005-.484-.063-.74-.364-.746-.857-.008-.455-.002-.91-.002-1.365v-1.037h4.094zM23.74 39.48v11.838h2.342V39.52h2.762v-1.74H21.31v1.7h2.43zM32.66 17c-.966 2.246-1.934 4.49-2.892 6.74-.054.125-.05.28-.05.423-.004 2.416-.003 4.832-.003 7.247v.416h-2.51v-.392c0-2.427.003-4.854-.005-7.28 0-.19-.047-.396-.126-.57-.994-2.197-2-4.39-3-6.584H26.8c.513 1.68 1.024 3.358 1.563 5.118.54-1.76 1.052-3.44 1.565-5.118h2.73zM38.525 29.433c-.216 1.583-1.36 2.502-2.95 2.467-.32-.007-.645-.034-.957-.1-1.18-.247-1.86-.96-2.028-2.153-.084-.59-.132-1.19-.13-1.787 0-1.45.02-2.903.074-4.354.025-.657.198-1.3.65-1.813.75-.854 1.73-1.055 2.81-.938 1.763.19 2.546 1.378 2.65 3.037.05.795.008 1.595.008 2.393.036 0 .02 2.176-.127 3.248zm-1.902-3.146h-.004v-2.725c0-.055-.01-.11-.018-.166-.058-.47-.422-.87-.856-.938-.466-.074-.945.188-1.117.646-.073.19-.097.41-.1.617-.006 1.64-.003 3.28-.002 4.92 0 .166-.008.333.008.498.044.472.396.87.838.958.428.087.924-.13 1.113-.542.094-.202.125-.448.127-.674.017-.865.01-1.73.01-2.593zM44.082 21.15h2.006v10.375h-2.566c.012-.234.022-.462.04-.796-.14.17-.226.274-.31.38-.465.59-1.08.76-1.78.577-.66-.174-1.042-.65-1.166-1.313-.067-.37-.124-.747-.125-1.12-.01-2.62-.006-5.236-.005-7.854 0-.076.01-.15.015-.248h2.178v.384c.002 2.53 0 5.057.002 7.586 0 .436.188.728.52.84.392.13.853 0 1.054-.352.1-.17.135-.397.135-.6.008-2.484.005-4.968.005-7.453-.003-.127-.003-.258-.003-.406zM38.29 45.95c0-.933.026-1.863-.01-2.793-.024-.634.544-.952 1.042-.955.54-.005 1.076.368 1.064.974-.03 1.807-.063 3.615.012 5.42.037.922-.945 1.23-1.53.977-.44-.188-.576-.38-.58-.86V45.95zM45.494 44.798c.024-.48.035-.935.078-1.384.033-.323.238-.548.527-.676.433-.19.884-.193 1.263.084.19.14.364.406.398.64.064.43.02.876.02 1.336h-2.286z"/></g></svg>